# xmcd
#
# Track frame offsets:
#	150
#	10685
#	33334
#	51126
#	77402
#	92614
#	113623
#	137846
#	156254
#	227338
#	242412
#	257126
#	284439
#	297374
#
# Disc length: 4511 seconds
#
# Revision: 0
# Processed by: cddbd v1.5.2PL0 Copyright (c) Steve Scherf et al.
# Submitted via: EZCDAudioConverter 2.1.7.1
#
DISCID=ac119d0e
DTITLE=V/A - PZYK Volume 2 2/2
DYEAR=1900
DGENRE=
TTITLE0=The Wytches - The Waving Snowman
TTITLE1=France - Meltdown Of Planet Earth [PZYK Edit]
TTITLE2=Trementina - Distress
TTITLE3=Baba Naga - Popo Bowa
TTITLE4=Cherrystones - Pleasure In Measures
TTITLE5=Oliver Coates - Hong Kong Lights
TTITLE6=La Hell Gang - Thru Me Again
TTITLE7=Silver Apples - Walkin'
TTITLE8=Pure Phase Ensemble 4 featuring Mark Gardener - Notatki
TTITLE9=Zombie Zombie - La Désintégration (Theme De Philippe)
TTITLE10=Emmplekz - Bocanet
TTITLE11=Gwenno - Fratolish Hiang Perpeshki [Tim Gane Remix]
TTITLE12=Tom Furse - Trans-Universal Express
TTITLE13=Cavern Of Anti-Matter - Hi-Hats Bring The Hiss
EXTD=
EXTT0=
EXTT1=
EXTT2=
EXTT3=
EXTT4=
EXTT5=
EXTT6=
EXTT7=
EXTT8=
EXTT9=
EXTT10=
EXTT11=
EXTT12=
EXTT13=
PLAYORDER=
